<svg xmlns="http://www.w3.org/2000/svg" width="11.991" height="12.001" viewBox="0 0 11.991 12.001">
  <path id="Forma_1" data-name="Forma 1" d="M382.177,23.873c-2.585-2.6-3.479-4.441-3.091-6.353a3.739,3.739,0,0,1,1.174-2.15,1.293,1.293,0,0,1,.905-.37,1.226,1.226,0,0,1,.878.363l1.733,1.742a1.286,1.286,0,0,1-.022,1.808l-.676.679a7.765,7.765,0,0,0,3.361,3.378l.675-.678a1.289,1.289,0,0,1,.921-.386,1.229,1.229,0,0,1,.878.361l1.733,1.743a1.325,1.325,0,0,1,0,1.78,2.863,2.863,0,0,1-2.181,1.2,2.273,2.273,0,0,1-.253.012C387.529,27,385.064,26.774,382.177,23.873Zm-1.408-7.957-.019.019-.022.017a2.942,2.942,0,0,0-.913,1.718c-.332,1.633.5,3.277,2.888,5.674,2.685,2.7,4.9,2.908,5.513,2.908.108,0,.166-.006.166-.006a2.117,2.117,0,0,0,1.688-.925.592.592,0,0,0,.049-.783L388.386,22.8a.493.493,0,0,0-.352-.142.557.557,0,0,0-.4.167l-.716.72a.594.594,0,0,1-.452.21.669.669,0,0,1-.322-.086,8.563,8.563,0,0,1-3.764-3.786.614.614,0,0,1,.066-.712l.013-.014.764-.767a.536.536,0,0,0,.023-.751l-1.733-1.742a.49.49,0,0,0-.351-.144A.555.555,0,0,0,380.769,15.916Zm6.9,4.251a2.235,2.235,0,0,0-1.749-1.768.374.374,0,0,1,.085-.743,2.971,2.971,0,0,1,2.4,2.431.375.375,0,0,1-.33.412l-.04,0A.373.373,0,0,1,387.665,20.166Zm1.5-.4a3.537,3.537,0,0,0-2.906-2.939.374.374,0,0,1,.085-.743,4.281,4.281,0,0,1,3.561,3.6.373.373,0,0,1-.329.412l-.041,0A.373.373,0,0,1,389.17,19.771Z" transform="translate(-378.999 -14.999)" fill="#ea2260"/>
</svg>
