<svg xmlns="http://www.w3.org/2000/svg" width="9" height="12.001" viewBox="0 0 9 12.001">
  <path id="Forma_1" data-name="Forma 1" d="M1388.323,26A1.369,1.369,0,0,1,1387,24.593V19.812a1.368,1.368,0,0,1,1.323-1.406h.794V16.478a2.384,2.384,0,1,1,4.765,0v1.928h.795A1.368,1.368,0,0,1,1396,19.812v4.782A1.369,1.369,0,0,1,1394.676,26Zm-.441-6.188v4.782a.456.456,0,0,0,.441.469h6.353a.457.457,0,0,0,.442-.469V19.812a.456.456,0,0,0-.442-.468h-6.353A.456.456,0,0,0,1387.882,19.812ZM1390,16.478v1.928h3V16.478a1.5,1.5,0,1,0-3,0Zm1.059,6.85V22.3a.879.879,0,0,1-.374-.728.818.818,0,1,1,1.633,0,.882.882,0,0,1-.376.73v1.028a.442.442,0,1,1-.882,0Z" transform="translate(-1387 -14)" fill="#ea2260"/>
</svg>
