<svg xmlns="http://www.w3.org/2000/svg" width="12.001" height="13" viewBox="0 0 12.001 13">
  <path id="Forma_1" data-name="Forma 1" d="M1514.727,25.638h-5.275a.451.451,0,0,1-.453-.449V24.142a4.18,4.18,0,0,1,4.191-4.159h1.161a4.2,4.2,0,0,1,1.729.375,3.469,3.469,0,1,1-1.354,5.28Zm.183-2.11a2.593,2.593,0,1,0,2.593-2.573A2.585,2.585,0,0,0,1514.91,23.529Zm-5.006.614v.6h4.321a3.448,3.448,0,0,1,.909-3.764,3.233,3.233,0,0,0-.783-.1h-1.161A3.278,3.278,0,0,0,1509.9,24.142Zm7.146.627v-.792h-.8a.449.449,0,1,1,0-.9h.8V22.29a.45.45,0,0,1,.9,0v.789h.8a.449.449,0,1,1,0,.9h-.8v.792a.45.45,0,0,1-.9,0Zm-6.061-8.018a2.774,2.774,0,1,1,2.775,2.753A2.767,2.767,0,0,1,1510.989,16.752Zm.9,0a1.87,1.87,0,1,0,1.87-1.855A1.865,1.865,0,0,0,1511.894,16.752Z" transform="translate(-1508.999 -14)" fill="#ea2260"/>
</svg>
